#!OML:ASF \\Waltz\H\Terrain\Patient Classification 1\Animal1\Tuesday\Animal1.ASF
:FULLY-SPECIFIED
:DEGREES
1846
root 8.59414 15.2803 -4.53181 21.5888 -33.3468 -0.498492
lowerback 27.0585 1.50505 -1.13849
upperback 9.27236 1.45836 1.69404
thorax -4.71663 0.551683 2.0781
lowerneck -11.9887 -0.453766 -7.41518
upperneck 12.0326 -0.772422 10.2806
head 5.65868 0.0279286 4.42599
rclavicle 1.59028e-014 -2.50469e-014
rhumerus -110.511 48.7398 -114.559
rradius 59.3321
rwrist -31.8426
rhand 9.28145 21.5173
rfingers 7.12502
rthumb 34.4445 354.833
lclavicle 1.59028e-014 -2.50469e-014
lhumerus -102.273 -48.4682 110.262
lradius 82.4314
lwrist -4.93218
lhand 18.6901 -328.074
lfingers 7.12502
lthumb 43.3129 776.061
rfemur -53.1474 2.81906 18.1996
rtibia 86.6763
rfoot -1.89885 7.27903
rtoes -25.9959
lfemur -61.1318 -11.6327 -14.4509
ltibia 54.3318
lfoot -15.5242 -5.61535
ltoes -4.86123
1847
root 8.58684 15.3078 -4.49827 21.4459 -33.6008 -0.54112
lowerback 27.2033 1.55762 -1.15842
upperback 9.3669 1.50607 1.63203
thorax -4.68175 0.571366 2.00662
lowerneck -12.2031 -0.446138 -7.21884
upperneck 12.1864 -0.76823 10.0875
head 5.74198 0.0315709 4.33541
rclavicle -7.23576e-014 6.91771e-014
rhumerus -110.628 50.2165 -113.75
rradius 57.5483
rwrist -31.4355
rhand 9.36349 14.5287
rfingers 7.12502
rthumb 34.5224 347.862
lclavicle -7.23576e-014 6.91771e-014
lhumerus -102.046 -50.1738 108.977
lradius 82.139
lwrist -3.61218
lhand 17.8835 -327.557
lfingers 7.12502
lthumb 42.5586 776.843
rfemur -53.5533 2.55126 18.1609
rtibia 87.1948
rfoot -2.05023 6.1204
rtoes -27.1378
lfemur -60.6426 -11.4523 -14.636
ltibia 54.1463
lfoot -15.3587 -6.00771
ltoes -1.53045
1848
root 8.58304 15.3361 -4.46221 21.2582 -33.6944 -0.742281
lowerback 27.6205 1.5396 -0.89662
upperback 9.40899 1.53523 1.58252
thorax -4.82721 0.586093 1.78961
lowerneck -12.3604 -0.454627 -6.99196
upperneck 12.3141 -0.799401 9.93408
head 5.81081 0.0205997 4.24861
rclavicle 1.19271e-014 5.22804e-014
rhumerus -110.174 51.451 -112.431
rradius 55.6182
rwrist -30.6196
rhand 8.05415 10.1952
rfingers 7.12502
rthumb 33.2785 343.254
lclavicle 1.19271e-014 5.22804e-014
lhumerus -101.783 -52.1141 107.692
lradius 81.6064
lwrist -2.33504
lhand 18.0852 -327.625
lfingers 7.12502
lthumb 42.7473 776.709
rfemur -53.7895 2.24761 18.2476
rtibia 87.5401
rfoot -2.29719 5.30592
rtoes -27.4337
lfemur -60.0412 -11.4254 -14.6236
ltibia 53.9409
lfoot -15.1002 -6.35963
ltoes 2.25047
1849
root 8.58186 15.3485 -4.43535 21.3283 -33.7911 -0.920874
lowerback 27.8249 1.63263 -0.679363
upperback 9.38563 1.70321 1.56748
thorax -4.95045 0.668613 1.59388
lowerneck -12.2373 -0.51886 -6.54498
upperneck 11.9834 -0.906993 9.6224
head 5.69421 -0.0385701 4.05641
rclavicle -2.66371e-014 -5.86415e-014
rhumerus -108.621 52.3432 -109.947
rradius 53.3483
rwrist -29.5472
rhand 6.18917 9.95556
rfingers 7.12502
rthumb 31.5036 342.651
lclavicle -2.66371e-014 -5.86415e-014
lhumerus -101.621 -54.1891 106.297
lradius 81.1888
lwrist -1.46675
lhand 18.4368 -327.546
lfingers 7.12502
lthumb 43.0761 776.673
rfemur -54.4769 1.91901 18.294
rtibia 87.8873
rfoot -3.03632 4.58466
rtoes -28.2982
lfemur -59.7783 -11.3648 -14.5619
ltibia 53.6961
lfoot -14.7173 -6.41991
ltoes 3.43168
1850
root 8.58041 15.3604 -4.40995 21.4362 -33.8578 -0.839774
lowerback 27.8585 1.81564 -0.510148
upperback 9.37486 1.9691 1.46991
thorax -4.97855 0.799594 1.30597
lowerneck -12.2415 -0.742881 -6.0789
upperneck 11.6741 -1.26057 9.5263
head 5.62713 -0.198199 3.91282
rclavicle 7.95139e-014 -6.59965e-014
rhumerus -106.308 52.7801 -106.729
rradius 51.011
rwrist -28.6284
rhand 3.70754 12.3763
rfingers 7.12502
rthumb 29.1364 344.636
lclavicle 7.95139e-014 -6.59965e-014
lhumerus -100.93 -56.6751 104.755
lradius 80.2898
lwrist -0.868938
lhand 18.0115 -327.382
lfingers 7.12502
lthumb 42.6783 776.977
rfemur -55.3895 1.47119 18.1176
rtibia 88.2171
rfoot -3.93631 3.73143
rtoes -29.2011
lfemur -59.6994 -11.3672 -14.7043
ltibia 53.4402
lfoot -14.5766 -6.27524
ltoes 1.27519
1851
root 8.57917 15.3753 -4.38365 21.3911 -34.0761 -0.526127
lowerback 27.8918 1.69329 -0.911865
upperback 9.2867 1.71793 1.49894
thorax -5.09721 0.67683 1.64594
lowerneck -12.1399 -0.572735 -6.65566
upperneck 11.7725 -0.956838 9.66925
head 5.61683 -0.0681835 4.08166
rclavicle 6.63941e-014 -4.09496e-014
rhumerus -105.075 54.7279 -104.507
rradius 48.8118
rwrist -28.211
rhand 2.0104 15.3808
rfingers 7.12502
rthumb 27.5145 347.371
lclavicle 6.63941e-014 -4.09496e-014
lhumerus -98.9518 -57.3652 102.135
lradius 78.8728
lwrist -0.935073
lhand 17.7509 -327.691
lfingers 7.12502
lthumb 42.4344 776.752
rfemur -56.3232 1.12314 17.6302
rtibia 88.4873
rfoot -4.3709 2.88439
rtoes -27.9406
lfemur -59.5842 -11.3442 -15.1149
ltibia 53.2283
lfoot -14.7146 -5.87357
ltoes -3.28792
1852
root 8.57741 15.384 -4.36222 21.1916 -34.4498 -0.131315
lowerback 28.074 1.78957 -1.25581
upperback 9.26534 1.73583 1.36036
thorax -5.21298 0.684224 1.68324
lowerneck -12.2218 -0.564841 -6.61002
upperneck 11.7625 -0.937275 9.58401
head 5.62554 -0.060733 4.04852
rclavicle -2.82274e-014 7.95139e-016
rhumerus -101.179 55.8661 -100.029
rradius 45.9224
rwrist -27.293
rhand 2.87229 17.7383
rfingers 7.12502
rthumb 28.3385 349.863
lclavicle -2.82274e-014 7.95139e-016
lhumerus -96.1418 -58.5619 98.9142
lradius 77.0429
lwrist -1.01896
lhand 16.5988 -327.619
lfingers 7.12502
lthumb 41.3544 777.183
rfemur -57.2177 0.8888 17.0027
rtibia 88.6582
rfoot -4.99404 1.85118
rtoes -26.5215
lfemur -59.3784 -11.1882 -15.6987
ltibia 53.0914
lfoot -14.7893 -5.26714
ltoes -8.66247
1853
root 8.5721 15.4026 -4.33139 21.3061 -34.5133 -0.393766
lowerback 28.2504 1.78796 -0.885278
upperback 9.29802 1.82156 1.33547
thorax -5.25203 0.726398 1.41364
lowerneck -12.2317 -0.683094 -6.54855
upperneck 11.5774 -1.10597 9.65658
head 5.58471 -0.135822 4.04478
rclavicle 6.2816e-014 -6.48038e-014
rhumerus -95.5523 56.4032 -93.966
rradius 42.7195
rwrist -25.3776
rhand 4.58117 19.7997
rfingers 7.12502
rthumb 29.9704 352.207
lclavicle 6.2816e-014 -6.48038e-014
lhumerus -91.8341 -59.6143 94.3005
lradius 74.9533
lwrist -1.89459
lhand 16.6615 -327.152
lfingers 7.12502
lthumb 41.4132 777.632
rfemur -57.7028 0.754772 16.9303
rtibia 88.6014
rfoot -5.69507 0.709107
rtoes -24.7502
lfemur -59.1497 -11.1485 -15.5832
ltibia 53.0416
lfoot -14.7742 -5.14717
ltoes -8.79927
1854
root 8.56682 15.4256 -4.29711 21.7993 -34.3481 -1.10679
lowerback 28.3292 1.54297 -0.28327
upperback 9.31123 1.68148 1.5155
thorax -5.25895 0.659758 1.30961
lowerneck -12.1489 -0.604245 -6.70094
upperneck 11.3466 -0.954771 9.61981
head 5.48605 -0.0754382 4.06642
rclavicle 2.54444e-014 -4.53229e-014
rhumerus -89.6587 57.3507 -87.6894
rradius 39.7056
rwrist -23.2589
rhand 3.88292 19.5063
rfingers 7.12502
rthumb 29.3039 351.795
lclavicle 2.54444e-014 -4.53229e-014
lhumerus -85.7417 -59.5326 87.6689
lradius 72.8289
lwrist -4.40259
lhand 20.5568 -327.339
lfingers 7.12502
lthumb 45.0534 776.14
rfemur -58.0581 0.772809 17.1022
rtibia 88.368
rfoot -5.83208 -0.0939652
rtoes -19.0236
lfemur -59.1655 -11.2206 -14.8863
ltibia 53.0636
lfoot -14.4798 -5.46781
ltoes -4.48406
1855
root 8.56568 15.4444 -4.26946 21.9412 -34.4537 -1.2648
lowerback 28.5142 1.36486 -0.330836
upperback 9.32153 1.44888 1.60814
thorax -5.33182 0.544867 1.51186
lowerneck -12.028 -0.400787 -6.81416
upperneck 11.1162 -0.615851 9.37234
head 5.36381 0.0630042 4.02801
rclavicle -6.04305e-014 -3.69739e-014
rhumerus -82.7931 58.0937 -80.6074
rradius 36.623
rwrist -20.9427
rhand 1.21518 18.1842
rfingers 7.12502
rthumb 26.7538 350.056
lclavicle -6.04305e-014 -3.69739e-014
lhumerus -79.3541 -58.5639 80.8198
lradius 70.4543
lwrist -6.96454
lhand 23.4062 -327.752
lfingers 7.12502
lthumb 47.694 774.603
rfemur -58.6305 0.7476 16.7694
rtibia 88.0639
rfoot -6.0868 -0.748616
rtoes -10.5388
lfemur -59.125 -11.2793 -14.7454
ltibia 53.0968
lfoot -14.1052 -5.60131
ltoes -0.899188
1856
root 8.56372 15.4624 -4.23842 21.9215 -34.7196 -1.33105
lowerback 28.7842 1.34805 -0.283862
upperback 9.31215 1.43237 1.56256
thorax -5.46666 0.536014 1.4378
lowerneck -11.975 -0.398834 -6.77481
upperneck 11.1269 -0.609634 9.26904
head 5.35722 0.0594509 3.98845
rclavicle 4.21423e-014 -3.33958e-014
rhumerus -75.0306 57.403 -72.5524
rradius 33.4622
rwrist -18.189
rhand -2.74857 18.029
rfingers 7.12502
rthumb 22.9552 349.376
lclavicle 4.21423e-014 -3.33958e-014
lhumerus -73.2934 -57.6766 74.4881
lradius 67.9089
lwrist -8.86961
lhand 24.0549 -328.071
lfingers 7.12502
lthumb 48.2921 774.004
rfemur -59.2285 0.691081 16.5288
rtibia 87.6612
rfoot -6.57913 -1.83667
rtoes -7.55302
lfemur -58.8883 -11.2895 -14.7792
ltibia 53.1387
lfoot -14.2016 -5.39427
ltoes 1.50342
1857
root 8.55492 15.4718 -4.20715 21.9014 -35.0202 -1.23585
lowerback 29.0087 1.36547 -0.342819
upperback 9.24176 1.43098 1.47275
thorax -5.65024 0.53611 1.37081
lowerneck -11.8816 -0.421313 -6.78701
upperneck 11.0948 -0.643135 9.28482
head 5.33434 0.0413331 3.99164
rclavicle -4.73108e-014 5.34731e-014
rhumerus -66.6074 55.6374 -63.7204
rradius 30.4116
rwrist -15.6377
rhand -6.21406 17.9181
rfingers 7.12502
rthumb 19.6266 348.889
lclavicle -4.73108e-014 5.34731e-014
lhumerus -67.5363 -56.4236 68.5305
lradius 65.3663
lwrist -10.7519
lhand 23.4698 -328.267
lfingers 7.12502
lthumb 47.7527 774.06
rfemur -59.7739 0.630635 16.1385
rtibia 87.0871
rfoot -6.85606 -3.30071
rtoes -8.11449
lfemur -58.7033 -11.34 -14.9398
ltibia 53.2027
lfoot -14.7293 -4.72445
ltoes -0.453791
1858
root 8.54623 15.4722 -4.18018 21.8837 -35.5071 -0.849785
lowerback 29.1436 1.46551 -0.749657
upperback 9.13765 1.43523 1.31794
thorax -5.83612 0.539359 1.43079
lowerneck -11.7956 -0.414615 -6.93567
upperneck 10.9059 -0.618027 9.41358
head 5.25978 0.0529443 4.05604
rclavicle -4.01545e-014 3.77691e-014
rhumerus -56.9769 51.7442 -53.7107
rradius 27.0577
rwrist -12.0222
rhand -10.3626 17.3053
rfingers 7.12502
rthumb 15.6344 347.917
lclavicle -4.01545e-014 3.77691e-014
lhumerus -61.9442 -54.7435 63.2835
lradius 62.4889
lwrist -12.5137
lhand 19.8742 -326.971
lfingers 7.12502
lthumb 44.4179 776.754
rfemur -60.4605 0.633395 15.3561
rtibia 86.3185
rfoot -6.77123 -4.54423
rtoes -7.25699
lfemur -58.683 -11.3489 -15.3528
ltibia 53.2994
lfoot -15.0976 -4.07503
ltoes -2.66663
1859
root 8.54319 15.474 -4.15578 22.1766 -36.0413 -1.02816
lowerback 29.3475 1.62211 -0.685022
upperback 8.99156 1.63853 1.20158
thorax -6.09737 0.638459 1.19391
lowerneck -11.764 -0.478021 -6.91581
upperneck 10.9287 -0.722932 9.50469
head 5.27091 0.00814224 4.07396
rclavicle 3.89618e-014 -8.66701e-014
rhumerus -49.5255 46.938 -45.7832
rradius 24.1334
rwrist -8.55508
rhand -17.8829 16.174
rfingers 7.12502
rthumb 8.3833 346.36
lclavicle 3.89618e-014 -8.66701e-014
lhumerus -56.8935 -53.3069 58.935
lradius 59.5528
lwrist -13.5392
lhand 14.0121 -324.931
lfingers 7.12502
lthumb 38.921 780.612
rfemur -61.2423 0.834407 15.1478
rtibia 85.2941
rfoot -6.07131 -5.83968
rtoes -5.24628
lfemur -58.7855 -11.1411 -15.2799
ltibia 53.4573
lfoot -15.1813 -3.84492
ltoes -1.03439
1860
root 8.54117 15.4826 -4.13076 22.568 -36.4177 -1.5157
lowerback 29.5826 1.62281 -0.420632
upperback 8.85389 1.71055 1.193
thorax -6.35708 0.672933 1.0038
lowerneck -11.6172 -0.369388 -6.63805
upperneck 10.9242 -0.598568 9.25384
head 5.23259 0.059712 3.95536
rclavicle 3.77691e-015 -2.32578e-014
rhumerus -43.8335 42.2326 -39.6851
rradius 21.8108
rwrist -5.35181
rhand -21.6451 18.0537
rfingers 7.12502
rthumb 4.75146 348.127
lclavicle 3.77691e-015 -2.32578e-014
lhumerus -53.0641 -51.4671 55.4926
lradius 56.8837
lwrist -14.1233
lhand 7.37435 -324.12
lfingers 7.12502
lthumb 32.632 782.957
rfemur -62.0977 0.974561 15.4577
rtibia 83.9814
rfoot -4.86319 -7.69724
rtoes -9.81893
lfemur -58.8649 -10.8923 -14.9487
ltibia 53.5936
lfoot -15.1797 -3.84431
ltoes 1.93714
